<svg width="400" height="99" viewBox="0 0 400 99" fill="none" xmlns="http://www.w3.org/2000/svg">
<path d="M36.2016 10.4281L3.08134 65.6621C-5.45351 79.9489 4.73735 98.1901 21.4249 98.1901H87.6655C104.353 98.1901 114.544 79.9489 106.009 65.6621L72.8887 10.4281C64.4813 -3.47604 44.4817 -3.47604 36.2016 10.4281ZM68.8124 12.9793L102.06 68.4684C106.773 76.3772 101.168 86.327 91.9966 86.327H25.5012C16.3295 86.327 10.7245 76.3772 15.4378 68.4684L48.6854 12.9793C53.2713 5.32567 64.2265 5.32567 68.8124 12.9793Z" fill="#DAAB6B"/>
<path d="M55.6917 24.46L33.5266 61.3252C30.0871 67.0654 34.1635 74.2089 40.7875 74.2089H84.9904C91.6145 74.2089 95.6908 66.9379 92.2514 61.3252L70.2136 24.46C66.9016 18.9749 59.0037 18.9749 55.6917 24.46ZM70.0863 33.2617L84.4808 57.3708C85.7547 59.5393 84.2261 62.3457 81.6784 62.3457H52.8892C50.3415 62.3457 48.6855 59.5393 50.0867 57.3708L64.4813 33.2617C65.7551 31.0932 68.8124 31.0932 70.0863 33.2617Z" fill="#DAAB6B"/>
<path d="M159.002 25.2253C165.626 25.2253 170.976 27.5214 175.307 32.2411C179.766 36.9609 181.931 42.7011 181.931 49.5894C181.931 56.3502 179.766 62.218 175.307 66.9377C170.976 71.5299 165.498 73.826 158.874 73.826C152.887 73.826 147.919 71.4024 144.098 66.5551V72.678H133.142V7.87695H144.225V32.3687C148.301 27.5214 153.142 25.2253 159.002 25.2253ZM170.721 49.4619C170.721 45.5075 169.447 42.1909 167.027 39.5121C164.479 36.8333 161.295 35.4302 157.346 35.4302C153.269 35.4302 150.085 36.8333 147.664 39.5121C145.117 42.1909 143.97 45.5075 143.97 49.4619C143.97 53.4163 145.244 56.7328 147.664 59.5392C150.212 62.218 153.397 63.4936 157.346 63.4936C161.295 63.4936 164.479 62.218 167.027 59.5392C169.447 56.7328 170.721 53.2887 170.721 49.4619Z" fill="#27AE60"/>
<path d="M212.758 73.6986C205.625 73.6986 199.765 71.4025 195.179 66.9378C190.593 62.3456 188.428 56.6054 188.428 49.5895C188.428 42.5736 190.721 36.7058 195.307 32.2412C200.02 27.649 205.88 25.4805 213.141 25.4805C217.854 25.4805 222.185 26.6285 226.007 28.7971C229.828 31.0932 232.631 34.1546 234.541 38.109L225.497 42.9563C222.567 38.109 218.491 35.6854 213.268 35.6854C209.319 35.6854 206.007 36.961 203.332 39.6397C200.657 42.3185 199.383 45.6351 199.383 49.5895C199.383 53.5439 200.657 56.8605 203.205 59.5393C205.752 62.2181 208.937 63.4937 212.886 63.4937C215.434 63.4937 217.854 62.8559 220.147 61.4527C222.44 60.1771 224.223 58.3912 225.242 56.2227L234.287 61.4527C232.248 65.152 229.319 68.2134 225.497 70.382C221.803 72.5505 217.472 73.6986 212.758 73.6986Z" fill="#27AE60"/>
<path d="M263.84 73.6986C256.706 73.6986 250.847 71.4025 246.261 66.9378C241.675 62.3456 239.509 56.6054 239.509 49.5895C239.509 42.5736 241.802 36.7058 246.388 32.2412C251.101 27.649 256.961 25.4805 264.222 25.4805C268.935 25.4805 273.267 26.6285 277.088 28.7971C280.91 31.0932 283.712 34.1546 285.623 38.109L276.579 42.9563C273.649 38.109 269.572 35.6854 264.35 35.6854C260.401 35.6854 257.088 36.961 254.413 39.6397C251.738 42.3185 250.464 45.6351 250.464 49.5895C250.464 53.5439 251.738 56.8605 254.286 59.5393C256.834 62.2181 260.018 63.4937 263.967 63.4937C266.515 63.4937 268.935 62.8559 271.228 61.4527C273.521 60.1771 275.305 58.3912 276.324 56.2227L285.368 61.4527C283.33 65.152 280.4 68.2134 276.579 70.382C272.884 72.5505 268.553 73.6986 263.84 73.6986Z" fill="#27AE60"/>
<path d="M297.98 73.9535C296.069 73.9535 294.54 73.3157 293.266 72.0401C291.992 70.7645 291.355 69.2337 291.355 67.3203C291.355 65.5345 291.992 64.0037 293.266 62.7281C294.54 61.4525 296.196 60.8147 297.98 60.8147C299.763 60.8147 301.292 61.4525 302.566 62.7281C303.839 64.0037 304.476 65.5345 304.476 67.3203C304.476 69.2337 303.839 70.7645 302.566 72.0401C301.419 73.3157 299.89 73.9535 297.98 73.9535Z" fill="#27AE60"/>
<path d="M358.106 72.678H344.348L328.552 52.5233L325.113 55.5848V72.678H313.903V7.87695H324.985V42.9562L342.819 26.3733H356.959L336.068 45.5075L358.106 72.678Z" fill="#27AE60"/>
<path d="M398.742 33.7721L375.048 63.3662H399.506V72.6782H359.889V65.1521L383.838 35.6855H361.163V26.3735H398.742V33.7721V33.7721Z" fill="#27AE60"/>
</svg>
